<?xml version="1.0" encoding="utf-8"?>
<!-- Generator: Adobe Illustrator 23.1.0, SVG Export Plug-In . SVG Version: 6.00 Build 0)  -->
<svg version="1.1" id="Layer_1" xmlns="http://www.w3.org/2000/svg" xmlns:xlink="http://www.w3.org/1999/xlink" x="0px" y="0px"
	 viewBox="0 0 64 64" style="enable-background:new 0 0 64 64;" xml:space="preserve">
<style type="text/css">
	.st0{fill:none;stroke:#007BFF;stroke-width:2;stroke-miterlimit:10;}
</style>
<path class="st0" d="M32,0.9c17.2,0,31.1,13.9,31.1,31.1c0,17.2-13.9,31.1-31.1,31.1C14.8,63.1,0.9,49.2,0.9,32
	C0.9,14.8,14.8,0.9,32,0.9z"/>
<line class="st0" x1="32" y1="1" x2="32" y2="63"/>
<line class="st0" x1="63" y1="32" x2="1" y2="32"/>
<path class="st0" d="M30,1c0,0-14,11-14,31s14,31,14,31"/>
<path class="st0" d="M34,1c0,0,14,11,14,31S34,63,34,63"/>
<path class="st0" d="M8,12c0,0,5,10,24,10s24-10,24-10"/>
<path class="st0" d="M8,52c0,0,5-10,24-10s24,10,24,10"/>
</svg>
