<?xml version="1.0" encoding="utf-8"?>
<!-- Generator: Adobe Illustrator 23.1.0, SVG Export Plug-In . SVG Version: 6.00 Build 0)  -->
<svg version="1.1" id="Layer_1" xmlns="http://www.w3.org/2000/svg" xmlns:xlink="http://www.w3.org/1999/xlink" x="0px" y="0px"
	 viewBox="0 0 64 64" style="enable-background:new 0 0 64 64;" xml:space="preserve">
<style type="text/css">
	.st0{fill:#007BFF;}
</style>
<g>
	<path class="st0" d="M17,26h-2c0,8.2,7.8,16.3,16,16.9V62H17v2h30v-2H33V42.9c8.2-0.6,16-8.7,16-16.9h-2c0,7.4-7.6,15-15,15
		S17,33.4,17,26z"/>
	<path class="st0" d="M41,27V9c0-5-4-9-9-9s-9,4-9,9v18c0,5,4,9,9,9S41,32,41,27z M25,27v-3h4v-2h-4v-8h4v-2h-4V9c0-3.9,3.1-7,7-7
		s7,3.1,7,7v3h-4v2h4v8h-4v2h4v3c0,3.9-3.1,7-7,7S25,30.9,25,27z"/>
</g>
</svg>
