<?xml version="1.0" encoding="utf-8"?>
<!-- Generator: Adobe Illustrator 23.1.0, SVG Export Plug-In . SVG Version: 6.00 Build 0)  -->
<svg version="1.1" xmlns="http://www.w3.org/2000/svg" xmlns:xlink="http://www.w3.org/1999/xlink" x="0px" y="0px"
	 viewBox="0 0 311.8 130.4" style="enable-background:new 0 0 311.8 130.4;" xml:space="preserve">
<style type="text/css">
	.st0{display:none;}
	.st1{display:inline;fill:#010202;}
	.st2{clip-path:url(#SVGID_2_);fill:#FFFFFF;}
	.st3{fill:#FFFFFF;}
	.st4{clip-path:url(#SVGID_4_);fill:#FFFFFF;}
	.st5{clip-path:url(#SVGID_6_);fill:#FFFFFF;}
</style>
<g id="Layer_2" class="st0">
	<rect x="0.1" y="0.6" class="st1" width="311.7" height="129.8"/>
</g>
<g id="FP_Logo">
	<g>
		<defs>
			<rect id="SVGID_1_" width="311.8" height="130.4"/>
		</defs>
		<clipPath id="SVGID_2_">
			<use xlink:href="#SVGID_1_"  style="overflow:visible;"/>
		</clipPath>
		<path class="st2" d="M305.6,119.4c0,4.6,3.2,5.2,4.8,5.2c0.5,0,0.8-0.1,0.8-0.1v-1.7c0,0-0.2,0.1-0.6,0.1c-1.1,0-3.1-0.4-3.1-3.7
			v-6.9h3.5v-1.6h-3.5v-4h-1.9v4h-1.9v1.6h1.8V119.4z M289,124.5h1.9v-6.7c0-0.7,0.1-1.3,0.2-1.9c0.6-2.3,2.7-3.9,5.1-3.9
			c2.7,0,3,1.9,3,4.1v8.4h1.9v-8.9c0-3.4-1.2-5.4-4.6-5.4c-3.3,0-5.1,2.2-5.6,3.5h-0.1c0,0,0.1-0.5,0.1-1.1v-2.1H289V124.5z
			 M274.7,116.1c0.4-2.8,2.5-4.3,4.8-4.3c2.1,0,3.8,1.4,4,4.3H274.7z M272.7,117.5c0,4.3,3.1,7.3,7.3,7.3c3.1,0,5.1-1.9,5.1-1.9
			l-0.9-1.4c0,0-1.7,1.7-4.2,1.7c-2.9,0-5.3-1.9-5.4-5.5h10.7c0,0,0.1-0.6,0.1-1c0-3.5-2-6.4-5.8-6.4
			C275.8,110.2,272.7,113,272.7,117.5 M248.2,124.5h1.9v-6.6c0-0.6,0.1-1.3,0.2-1.9c0.6-2.1,2.3-4.1,4.6-4.1c2.6,0,2.9,2,2.9,4.2
			v8.4h1.9v-6.6c0-0.7,0.1-1.4,0.2-2c0.5-2,2.3-3.9,4.4-3.9c2.5,0,3,1.9,3,4.2v8.4h1.9v-8.9c0-3.4-1.2-5.4-4.6-5.4
			c-2.4,0-4.4,1.6-5.1,3.5h-0.1c-0.4-2.3-1.7-3.5-4.3-3.5c-2.2,0-4.4,1.6-5,3.5H250c0,0,0.1-0.5,0.1-1.1v-2.1h-1.9V124.5z
			 M233.9,116.1c0.4-2.8,2.5-4.3,4.8-4.3c2.1,0,3.8,1.4,4,4.3H233.9z M231.9,117.5c0,4.3,3.1,7.3,7.3,7.3c3.1,0,5.1-1.9,5.1-1.9
			l-0.9-1.4c0,0-1.7,1.7-4.2,1.7c-2.9,0-5.3-1.9-5.4-5.5h10.7c0,0,0.1-0.6,0.1-1c0-3.5-2-6.4-5.8-6.4
			C235,110.2,231.9,113,231.9,117.5 M222.3,122.7c-2.8,0-4.6-2.2-4.6-5.5s1.6-5.3,4.3-5.3c2.5,0,4.4,1.2,4.4,5.3
			C226.4,121.4,224.5,122.7,222.3,122.7 M217.8,127.6l-0.7,1.5c1.4,0.7,3,1.1,4.6,1.1c3.4,0,6.7-1.7,6.7-6.1v-13.6h-1.8v1.5
			c0,0.3,0,0.5,0,0.5h-0.1c0,0-0.9-2.3-4.6-2.3c-3.7,0-6,2.8-6,7c0,4.2,2.5,7.1,6.2,7.1c2.2,0,3.6-0.9,4.4-2.4h0.1
			c0,0-0.1,0.5-0.1,1v1.3c0,3.1-2.2,4.4-4.9,4.4C219.5,128.6,217.8,127.6,217.8,127.6 M203.1,120.6c0-3.1,4.4-3.2,6.6-3.2h0.8v0.6
			c0,2.4-1.6,5.2-4.3,5.2C204.1,123.2,203.1,121.9,203.1,120.6 M201.2,120.7c0,2.8,2.4,4.1,4.7,4.1c3.5,0,4.6-3,4.6-3h0.1
			c0,0-0.1,0.5-0.1,1.2v1.5h1.8v-8.9c0-3.5-1.9-5.3-5.2-5.3c-3.1,0-5,1.6-5,1.6l0.9,1.4c0,0,1.6-1.3,3.9-1.3c2,0,3.5,0.9,3.5,3.6
			v0.4h-0.8C207.3,115.9,201.2,116,201.2,120.7 M185.9,124.5h1.9v-6.7c0-0.7,0.1-1.3,0.2-1.9c0.6-2.3,2.7-3.9,5.1-3.9
			c2.7,0,3,1.9,3,4.1v8.4h1.9v-8.9c0-3.4-1.2-5.4-4.6-5.4c-3.3,0-5.1,2.2-5.6,3.5h-0.1c0,0,0.1-0.5,0.1-1.1v-2.1h-1.9V124.5z
			 M172.4,120.6c0-3.1,4.4-3.2,6.6-3.2h0.8v0.6c0,2.4-1.6,5.2-4.3,5.2C173.4,123.2,172.4,121.9,172.4,120.6 M170.4,120.7
			c0,2.8,2.4,4.1,4.7,4.1c3.5,0,4.6-3,4.6-3h0.1c0,0-0.1,0.5-0.1,1.2v1.5h1.8v-8.9c0-3.5-1.9-5.3-5.2-5.3c-3.1,0-5,1.6-5,1.6
			l0.9,1.4c0,0,1.6-1.3,3.9-1.3c2,0,3.5,0.9,3.5,3.6v0.4h-0.8C176.5,115.9,170.4,116,170.4,120.7 M146.2,124.5h1.9v-6.6
			c0-0.6,0.1-1.3,0.2-1.9c0.6-2.1,2.3-4.1,4.6-4.1c2.6,0,2.9,2,2.9,4.2v8.4h1.9v-6.6c0-0.7,0.1-1.4,0.2-2c0.5-2,2.3-3.9,4.4-3.9
			c2.5,0,3,1.9,3,4.2v8.4h1.9v-8.9c0-3.4-1.2-5.4-4.6-5.4c-2.4,0-4.4,1.6-5.1,3.5h-0.1c-0.4-2.3-1.7-3.5-4.3-3.5
			c-2.2,0-4.4,1.6-5,3.5H148c0,0,0.1-0.5,0.1-1.1v-2.1h-1.9V124.5z M129.4,119.4c0,4.6,3.2,5.2,4.8,5.2c0.5,0,0.8-0.1,0.8-0.1v-1.7
			c0,0-0.2,0.1-0.6,0.1c-1.1,0-3.1-0.4-3.1-3.7v-6.9h3.5v-1.6h-3.5v-4h-1.9v4h-1.9v1.6h1.8V119.4z M112.8,124.5h1.9v-6.7
			c0-0.7,0.1-1.3,0.2-1.9c0.6-2.3,2.7-3.9,5.1-3.9c2.7,0,3,1.9,3,4.1v8.4h1.9v-8.9c0-3.4-1.2-5.4-4.6-5.4c-3.3,0-5.1,2.2-5.6,3.5
			h-0.1c0,0,0.1-0.5,0.1-1.1v-2.1h-1.9V124.5z M98.5,116.1c0.4-2.8,2.5-4.3,4.8-4.3c2.1,0,3.8,1.4,4,4.3H98.5z M96.5,117.5
			c0,4.3,3.1,7.3,7.3,7.3c3.1,0,5.1-1.9,5.1-1.9l-0.9-1.4c0,0-1.7,1.7-4.2,1.7c-2.9,0-5.3-1.9-5.4-5.5h10.7c0,0,0.1-0.6,0.1-1
			c0-3.5-2-6.4-5.8-6.4C99.6,110.2,96.5,113,96.5,117.5 M72,124.5h1.9v-6.6c0-0.6,0.1-1.3,0.2-1.9c0.6-2.1,2.3-4.1,4.6-4.1
			c2.6,0,2.9,2,2.9,4.2v8.4h1.9v-6.6c0-0.7,0.1-1.4,0.2-2c0.5-2,2.3-3.9,4.4-3.9c2.5,0,3,1.9,3,4.2v8.4h1.9v-8.9
			c0-3.4-1.2-5.4-4.6-5.4c-2.4,0-4.4,1.6-5.1,3.5h-0.1c-0.4-2.3-1.7-3.5-4.3-3.5c-2.2,0-4.4,1.6-5,3.5h-0.1c0,0,0.1-0.5,0.1-1.1
			v-2.1H72V124.5z M63.5,119.4c0,4.6,3.2,5.2,4.8,5.2c0.5,0,0.8-0.1,0.8-0.1v-1.7c0,0-0.2,0.1-0.6,0.1c-1.1,0-3.1-0.4-3.1-3.7v-6.9
			h3.5v-1.6h-3.5v-4h-1.9v4h-1.9v1.6h1.8V119.4z M49.5,122.8c0,0,1.8,2,5.1,2c2.8,0,4.8-1.6,4.8-3.9c0-4.6-7.5-3.8-7.5-6.8
			c0-1.6,1.4-2.2,2.8-2.2c2.3,0,3.5,1.3,3.5,1.3l0.9-1.4c0,0-1.4-1.5-4.3-1.5c-2.5,0-4.8,1.4-4.8,3.8c0,4.5,7.5,3.8,7.5,6.8
			c0,1.5-1.3,2.2-2.8,2.2c-2.6,0-4.2-1.7-4.2-1.7L49.5,122.8z M36.4,116.1c0.4-2.8,2.5-4.3,4.8-4.3c2.1,0,3.8,1.4,4,4.3H36.4z
			 M34.4,117.5c0,4.3,3.1,7.3,7.3,7.3c3.1,0,5.1-1.9,5.1-1.9l-0.9-1.4c0,0-1.7,1.7-4.2,1.7c-2.9,0-5.3-1.9-5.4-5.5H47
			c0,0,0.1-0.6,0.1-1c0-3.5-2-6.4-5.8-6.4C37.5,110.2,34.4,113,34.4,117.5 M25.8,124.5h2l5.3-13.9h-2l-3.8,10.2
			c-0.3,0.7-0.5,1.7-0.5,1.7h-0.1c0,0-0.2-1-0.5-1.7l-3.9-10.2h-2L25.8,124.5z M6.3,124.5h1.9v-6.7c0-0.7,0.1-1.3,0.2-1.9
			c0.6-2.3,2.7-3.9,5.1-3.9c2.7,0,3,1.9,3,4.1v8.4h1.9v-8.9c0-3.4-1.2-5.4-4.6-5.4c-3.3,0-5.1,2.2-5.6,3.5H8.1c0,0,0.1-0.5,0.1-1.1
			v-2.1H6.3V124.5z M0.1,124.5h1.9v-13.9H0.1V124.5z M0,107.4h2V105H0V107.4z"/>
		<path class="st2" d="M123.7,61.1c0,3.1-1.6,5.2-4.9,5.2h-4.6V56h4.8C122.1,56,123.7,58.1,123.7,61.1 M133.2,61.1
			c0-7.7-5-13.2-12.5-13.2h-15.9v38.3h9.4V74.4h6.5C128.2,74.4,133.2,68.8,133.2,61.1"/>
		<path class="st2" d="M156.7,60.6c0,3.1-1.9,4.7-4.9,4.7h-4.1V56h3.2C155.6,56,156.7,57.7,156.7,60.6 M166.2,60
			c0-5.6-2.7-9.5-7.1-11.1c-1.7-0.6-3.5-0.9-7.4-0.9h-13.3v38.3h9.4V73.3h4.4l6.8,12.9h10.4L162,72.9c-0.9-1.6-1.4-2.3-1.4-2.3v-0.1
			C164.3,68.5,166.2,64.1,166.2,60"/>
	</g>
	<rect x="174" y="48" class="st3" width="9.4" height="38.3"/>
	<g>
		<defs>
			<rect id="SVGID_3_" width="311.8" height="130.4"/>
		</defs>
		<clipPath id="SVGID_4_">
			<use xlink:href="#SVGID_3_"  style="overflow:visible;"/>
		</clipPath>
		<path class="st4" d="M200.3,86.2h9.7L223.5,48h-10l-6.9,21.8c-0.8,2.4-1.4,6.2-1.4,6.2h-0.1c0,0-0.7-3.7-1.4-6.2L196.9,48h-10.2
			L200.3,86.2z"/>
		<path class="st4" d="M241.9,70.7h-7.6l2.2-7.4c0.7-2.4,1.6-6.6,1.6-6.6h0.1c0,0,0.9,4.2,1.6,6.6L241.9,70.7z M256.1,86.2l-13-38.3
			h-9.9l-13,38.3h9.6l2.3-8h11.9l2.4,8H256.1z"/>
	</g>
	<polygon class="st3" points="262.4,86.2 271.8,86.2 271.8,56 283.4,56 283.4,48 250.8,48 250.8,56 262.4,56 	"/>
	<polygon class="st3" points="287.1,48 287.1,86.2 311.8,86.2 311.8,78.2 296.4,78.2 296.4,71 308.1,71 308.1,63 296.4,63 296.4,56 
		311.1,56 311.1,48 	"/>
	<g>
		<defs>
			<rect id="SVGID_5_" width="311.8" height="130.4"/>
		</defs>
		<clipPath id="SVGID_6_">
			<use xlink:href="#SVGID_5_"  style="overflow:visible;"/>
		</clipPath>
		<path class="st5" d="M225.5,38.9h9.4V8.7h11.6v-8h-32.6v8h11.6V38.9z M184.3,34.1c0,0,5,5.5,14,5.5c8.6,0,13.5-5.5,13.5-11.9
			c0-12.1-17.2-11.2-17.2-16.1c0-2.1,2.1-3,4.1-3c4.6,0,8.5,3.4,8.5,3.4l4-7.7c0,0-4.1-4.3-12.3-4.3c-7.6,0-13.5,4.7-13.5,11.7
			c0,11.8,17.2,11.6,17.2,16.2c0,2.3-2.1,3.1-4,3.1c-4.8,0-9.2-4-9.2-4L184.3,34.1z M160.9,18V8.7h3.2c4.7,0,5.8,1.7,5.8,4.6
			c0,3.1-1.9,4.7-4.9,4.7H160.9z M151.5,38.9h9.4V26h4.4l6.8,12.9h10.4l-7.4-13.4c-0.9-1.6-1.4-2.3-1.4-2.3v-0.1
			c3.8-1.9,5.7-6.4,5.7-10.4c0-5.6-2.7-9.5-7.1-11.1c-1.7-0.6-3.5-0.9-7.4-0.9h-13.3V38.9z M134.2,38.9h9.4V0.6h-9.4V38.9z
			 M104.9,38.9h9.4V24.7h11.7v-8h-11.7v-8h14.1v-8h-23.5V38.9z"/>
	</g>
	<path class="st3" d="M0.1,50.7l0,35.5h14.3l20-55.2L0.1,50.7z M0.1,0.6v34.2L42,8.6h18.9L33.5,86.3h52.2V0.6H0.1z"/>
</g>
</svg>
