<?xml version="1.0" encoding="utf-8"?>
<!-- Generator: Adobe Illustrator 23.1.0, SVG Export Plug-In . SVG Version: 6.00 Build 0)  -->
<svg version="1.1" id="Layer_1" xmlns="http://www.w3.org/2000/svg" xmlns:xlink="http://www.w3.org/1999/xlink" x="0px" y="0px"
	 viewBox="0 0 807 1073.1" style="enable-background:new 0 0 807 1073.1;" xml:space="preserve">
<style type="text/css">
	.st0{clip-path:url(#SVGID_2_);fill:#FFFFFF;}
	.st1{fill:#FFFFFF;}
	.st2{clip-path:url(#SVGID_4_);fill:#FFFFFF;}
	.st3{clip-path:url(#SVGID_6_);fill:#FFFFFF;}
	.st4{clip-path:url(#SVGID_8_);fill:#FFFFFF;}
</style>
<g>
	<defs>
		<rect id="SVGID_1_" width="807" height="1073.1"/>
	</defs>
	<clipPath id="SVGID_2_">
		<use xlink:href="#SVGID_1_"  style="overflow:visible;"/>
	</clipPath>
	<path class="st0" d="M136.9,1038.2H40.4V880.9c0-1.4-1.1-2.6-2.6-2.6H2.6c-1.4,0-2.6,1.2-2.6,2.6v189.6c0,1.4,1.2,2.6,2.6,2.6
		h134.3c1.4,0,2.6-1.2,2.6-2.6v-29.8C139.5,1039.3,138.3,1038.2,136.9,1038.2"/>
	<path class="st0" d="M330.3,878.4H191.9c-1.4,0-2.6,1.2-2.6,2.6v189.6c0,1.4,1.2,2.6,2.6,2.6h35.2c1.4,0,2.6-1.2,2.6-2.6v-70h89
		c1.4,0,2.6-1.1,2.6-2.6v-29.8c0-1.4-1.2-2.6-2.6-2.6h-89V913h100.6c1.4,0,2.6-1.1,2.6-2.6v-29.5
		C332.9,879.5,331.7,878.4,330.3,878.4"/>
	<path class="st0" d="M474.4,878.4h-82.9c-1.4,0-2.6,1.1-2.6,2.6v189.6c0,1.4,1.2,2.6,2.6,2.6h82.9c63.4,0,106.1-39.1,106.1-97.4
		C580.5,917.5,537.9,878.4,474.4,878.4 M539.8,975.7c0,37.9-26.3,62.4-67,62.4h-43.5V913.3h43.5
		C513.5,913.3,539.8,937.8,539.8,975.7"/>
	<path class="st0" d="M784.6,1038.4H680.2v-47.1h89c1.4,0,2.6-1.1,2.6-2.6v-29c0-1.4-1.2-2.6-2.6-2.6h-89v-44.1h100.6
		c1.4,0,2.6-1.2,2.6-2.6v-29.5c0-1.4-1.2-2.6-2.6-2.6H642.4c-1.4,0-2.6,1.2-2.6,2.6v189.6c0,1.4,1.2,2.6,2.6,2.6h142.2
		c1.4,0,2.6-1.2,2.6-2.6V1041C787.1,1039.6,786,1038.4,784.6,1038.4"/>
	<path class="st0" d="M778.3,780.1c3,0,5.4-2.4,5.4-5.4V492c0-3-2.4-5.4-5.4-5.4h-32.2c-3,0-5.4,2.4-5.4,5.4v245.2H46.5V42.9h694.3
		v243.5c0,3,2.4,5.4,5.4,5.4h32.2c3,0,5.4-2.4,5.4-5.4V5.4c0-3-2.4-5.4-5.4-5.4H9C6,0,3.6,2.4,3.6,5.4v769.4c0,3,2.4,5.4,5.4,5.4
		H778.3z"/>
</g>
<polygon class="st1" points="718.1,388.3 762.9,437.7 807,388.3 762.9,340.5 "/>
<g>
	<defs>
		<rect id="SVGID_3_" width="807" height="1073.1"/>
	</defs>
	<clipPath id="SVGID_4_">
		<use xlink:href="#SVGID_3_"  style="overflow:visible;"/>
	</clipPath>
	<path class="st2" d="M393.7,685.2h142.4v-14.5c0,0,0-11-11.8-15.4c-8.3-3.1-6.4-10.9,0-17.2c7.9-7.7-1.8-16.3-14.5-20.8
		c-12.7-4.5-49.8-21.7-49.8-36.2c0-14.5,16.3-19.9,16.3-19.9s-42.6-59.8-49-192c0,0,12.5-0.5,30.9-4.5c17.7-3.9,24-7,4.3-14.6
		c-19.6-7.6-26.7-9.5-26.7-9.5s0-19.8,1.7-39.6c1.7-19.8,5.2-32.7,17.2-50.8c12.1-18.1,22.4-41.3,0.9-52.5
		c-21.5-11.2-48.2-14.7-48.2-14.7l10.3-13.8l-15.5-17.2h28.4v-27.5h-28.4l13.8-11.2V98.8l-22.4-6l-22.4,6v14.6l13.8,11.2h-28.4v27.5
		h28.4l-15.5,17.2l10.3,13.8c0,0-26.7,3.4-48.2,14.7c-21.5,11.2-11.2,34.4,0.9,52.5c12,18.1,15.5,31,17.2,50.8
		c1.7,19.8,1.7,39.6,1.7,39.6s-7.1,1.9-26.7,9.5c-19.7,7.6-13.4,10.7,4.3,14.6c18.4,4,30.9,4.5,30.9,4.5c-6.3,132.1-49,192-49,192
		s16.3,5.4,16.3,19.9c0,14.4-37.1,31.6-49.8,36.2c-12.7,4.5-22.4,13.1-14.5,20.8c6.4,6.2,8.3,14.1,0,17.2
		c-11.8,4.4-11.8,15.4-11.8,15.4v14.5H393.7z"/>
</g>
<g>
	<defs>
		<rect id="SVGID_5_" width="807" height="1073.1"/>
	</defs>
	<clipPath id="SVGID_6_">
		<use xlink:href="#SVGID_5_"  style="overflow:visible;"/>
	</clipPath>
	<path class="st3" d="M136.9,1038.2H40.4V880.9c0-1.4-1.1-2.6-2.6-2.6H2.6c-1.4,0-2.6,1.2-2.6,2.6v189.6c0,1.4,1.2,2.6,2.6,2.6
		h134.3c1.4,0,2.6-1.2,2.6-2.6v-29.8C139.5,1039.3,138.3,1038.2,136.9,1038.2"/>
	<path class="st3" d="M330.3,878.4H191.9c-1.4,0-2.6,1.2-2.6,2.6v189.6c0,1.4,1.2,2.6,2.6,2.6h35.2c1.4,0,2.6-1.2,2.6-2.6v-70h89
		c1.4,0,2.6-1.1,2.6-2.6v-29.8c0-1.4-1.2-2.6-2.6-2.6h-89V913h100.6c1.4,0,2.6-1.1,2.6-2.6v-29.5
		C332.9,879.5,331.7,878.4,330.3,878.4"/>
	<path class="st3" d="M474.4,878.4h-82.9c-1.4,0-2.6,1.1-2.6,2.6v189.6c0,1.4,1.2,2.6,2.6,2.6h82.9c63.4,0,106.1-39.1,106.1-97.4
		C580.5,917.5,537.9,878.4,474.4,878.4 M539.8,975.7c0,37.9-26.3,62.4-67,62.4h-43.5V913.3h43.5
		C513.5,913.3,539.8,937.8,539.8,975.7"/>
	<path class="st3" d="M784.6,1038.4H680.2v-47.1h89c1.4,0,2.6-1.1,2.6-2.6v-29c0-1.4-1.2-2.6-2.6-2.6h-89v-44.1h100.6
		c1.4,0,2.6-1.2,2.6-2.6v-29.5c0-1.4-1.2-2.6-2.6-2.6H642.4c-1.4,0-2.6,1.2-2.6,2.6v189.6c0,1.4,1.2,2.6,2.6,2.6h142.2
		c1.4,0,2.6-1.2,2.6-2.6V1041C787.1,1039.6,786,1038.4,784.6,1038.4"/>
	<path class="st3" d="M778.3,780.1c3,0,5.4-2.4,5.4-5.4V492c0-3-2.4-5.4-5.4-5.4h-32.2c-3,0-5.4,2.4-5.4,5.4v245.2H46.5V42.9h694.3
		v243.5c0,3,2.4,5.4,5.4,5.4h32.2c3,0,5.4-2.4,5.4-5.4V5.4c0-3-2.4-5.4-5.4-5.4H9C6,0,3.6,2.4,3.6,5.4v769.4c0,3,2.4,5.4,5.4,5.4
		H778.3z"/>
</g>
<polygon class="st1" points="718.1,388.3 762.9,437.7 807,388.3 762.9,340.5 "/>
<g>
	<defs>
		<rect id="SVGID_7_" width="807" height="1073.1"/>
	</defs>
	<clipPath id="SVGID_8_">
		<use xlink:href="#SVGID_7_"  style="overflow:visible;"/>
	</clipPath>
	<path class="st4" d="M393.7,685.2h142.4v-14.5c0,0,0-11-11.8-15.4c-8.3-3.1-6.4-10.9,0-17.2c7.9-7.7-1.8-16.3-14.5-20.8
		c-12.7-4.5-49.8-21.7-49.8-36.2c0-14.5,16.3-19.9,16.3-19.9s-42.6-59.8-49-192c0,0,12.5-0.5,30.9-4.5c17.7-3.9,24-7,4.3-14.6
		c-19.6-7.6-26.7-9.5-26.7-9.5s0-19.8,1.7-39.6c1.7-19.8,5.2-32.7,17.2-50.8c12.1-18.1,22.4-41.3,0.9-52.5
		c-21.5-11.2-48.2-14.7-48.2-14.7l10.3-13.8l-15.5-17.2h28.4v-27.5h-28.4l13.8-11.2V98.8l-22.4-6l-22.4,6v14.6l13.8,11.2h-28.4v27.5
		h28.4l-15.5,17.2l10.3,13.8c0,0-26.7,3.4-48.2,14.7c-21.5,11.2-11.2,34.4,0.9,52.5c12,18.1,15.5,31,17.2,50.8
		c1.7,19.8,1.7,39.6,1.7,39.6s-7.1,1.9-26.7,9.5c-19.7,7.6-13.4,10.7,4.3,14.6c18.4,4,30.9,4.5,30.9,4.5c-6.3,132.1-49,192-49,192
		s16.3,5.4,16.3,19.9c0,14.4-37.1,31.6-49.8,36.2c-12.7,4.5-22.4,13.1-14.5,20.8c6.4,6.2,8.3,14.1,0,17.2
		c-11.8,4.4-11.8,15.4-11.8,15.4v14.5H393.7z"/>
</g>
</svg>
