<?xml version="1.0" encoding="utf-8"?>
<!-- Generator: Adobe Illustrator 23.1.0, SVG Export Plug-In . SVG Version: 6.00 Build 0)  -->
<svg version="1.1" id="Ebene_1" xmlns="http://www.w3.org/2000/svg" xmlns:xlink="http://www.w3.org/1999/xlink" x="0px" y="0px"
	 viewBox="0 0 291.9 219.8" style="enable-background:new 0 0 291.9 219.8;" xml:space="preserve">
<style type="text/css">
	.st0{fill:#FFFFFF;}
</style>
<path class="st0" d="M56.3,161.9l-9.7,17.3h200l-9.6-17.3H56.3z M72,133.8l-9.8,17.6H231l-9.8-17.6H72z M123.7,41.4l-8.1,14.4h62.2
	l-8-14.4H123.7z M146.9,0l-17.3,30.8h34.4L146.9,0z"/>
<g>
</g>
<g>
</g>
<path class="st0" d="M204.5,114.6c0,4.9,7.1,6.9,12.9,6.9c8,0,14.9-3.7,14.9-11.8c0-14.4-20.9-13.2-20.9-24.9c0-4.9,3.8-7,8.3-7
	c5.6,0,8.2,4.1,7.5,9.2h2.3l2.1-10.4c-1.5-0.2-6.3-1.3-11-1.3c-9.9,0-14.9,5-14.9,11.6c0,13.6,20.9,13.4,20.9,25c0,5.1-4.1,7-8.5,7
	c-4.5,0-9.7-2.1-9.7-10.3H206C204.8,112.7,204.5,113.6,204.5,114.6 M168.6,120.9l16.1-0.4l0.3-1.9l-6-0.6c0,0,0.3-1.5,0.3-3.4v-13.8
	l12.2-19.7c2-3.2,4.6-4.1,4.6-4.1l-0.3-0.9H185v1.7c3.4,0.5,3.7,2.4,2.7,4.1l-10,16.1c-0.5-1.1-1.3-2.7-1.9-3.7l-8.3-13.4
	c-1.4-2.3-0.1-4.8-0.1-4.8l-0.3-0.3c0,0-2.6,0.3-6.8,0.3H157v1.7c0,0,1.9,0.4,3.5,2.9l12.8,20.3v13.6c0,2.3-1.9,3.8-4.8,4.1V120.9z
	 M102.1,99c0,12.2,8.9,22.5,22.6,22.5c14.8,0,24.5-11.9,24.5-24.7c0-12.1-8.9-21.5-22.9-21.5C110.8,75.3,102.1,86.9,102.1,99
	 M108.8,97.2c0-9.8,6.1-19.3,16.5-19.3c11.1,0,17.4,10.5,17.4,20.5c0,9.8-6.1,20.3-16.6,20.3C115,118.8,108.8,107.2,108.8,97.2
	 M61.2,120.9c0,0,6-0.2,9.4-0.2h21.5l2.7-12.2h-2.3c-3.3,7.6-4.4,9.6-10.2,9.6H71.3c0,0,0.3-1.7,0.3-3.7V84.2c0-5.6,2.2-8.1,2.2-8.1
	l-0.3-0.3c0,0-1.5,0.3-7.5,0.3h-5.2v1.7c4.9,1,4.9,1.7,4.9,4.9v32c0,2.4-1.5,3.8-4.5,4.1V120.9z"/>
<g>
	<path class="st0" d="M0,218.9c0.9-0.1,1.3-0.6,1.5-1l5.2-13l0.9-0.2l4.9,12.5c0.6,1.5,1,1.6,1.7,1.7l-0.1,0.6h-0.9
		c-0.8,0-3.3,0.1-3.3,0.1v-0.7c0.6,0,1.2-0.2,0.9-0.9l-1.3-3.5H4.1l-0.3,0.2l-1.5,4l1.9,0.3l-0.1,0.6H0V218.9z M6.7,207.2l-2.4,6.4
		H9l-1.9-5C6.9,208.1,6.8,207.5,6.7,207.2z"/>
	<path class="st0" d="M15.2,218.9c1-0.1,1.6-0.6,1.6-1.4V207c0-1.1,0-1.3-1.6-1.6v-0.5h1.7c2,0,2.5-0.1,2.5-0.1l0.1,0.1
		c0,0-0.7,0.8-0.7,2.7v3.9h0.4c0,0,0.4-0.2,0.7-0.6l4.3-4.3c0.4-0.4,0.4-1-0.6-1.1v-0.5h4.1l0.1,0.3c0,0-1.2,0.3-2.8,1.9l-4.2,4.1
		v0.2l5.3,6.1c1,1.1,1.2,1.2,1.9,1.3l0.2,0l-0.1,0.7h-3.2l-0.1-0.1c0,0-0.2-0.7-1.7-2.3l-4.1-4.8h-0.4v5.2c0,0.6-0.1,1.1-0.1,1.1
		l2,0.2l-0.1,0.6l-5.3,0.1V218.9z"/>
	<path class="st0" d="M32.6,218.9c1-0.1,1.6-0.6,1.6-1.4v-11.8H32c-1.5,0-2.2,0.5-3,2.7h-0.7l0.7-3.7c0,0,0.6,0.1,1.5,0.1h10.3
		c0.9,0,1.6-0.1,1.6-0.1l-0.7,3.7h-0.7c0.1-2.3-0.6-2.7-2.3-2.7h-2.2l-0.2,0.2v11.5c0,0.7-0.1,1.2-0.1,1.2l2.2,0.2l-0.1,0.6
		l-5.5,0.1V218.9z"/>
	<path class="st0" d="M43.5,218.9c1-0.1,1.6-0.6,1.6-1.4V207c0-1.1,0-1.3-1.6-1.6v-0.5h1.7c2,0,2.5-0.1,2.5-0.1l0.1,0.1
		c0,0-0.7,0.8-0.7,2.7v10c0,0.6-0.1,1.1-0.1,1.1l2.1,0.2l-0.1,0.6l-5.4,0.1V218.9z"/>
	<path class="st0" d="M50.8,218.9c1-0.1,1.6-0.6,1.6-1.4V207c0-1.1-0.1-1.3-1.8-1.6v-0.5h9.1c0.9,0,1.6-0.1,1.6-0.1l-0.7,3.7h-0.7
		c0.1-2.3-0.6-2.7-2.4-2.7h-2.9l-0.2,0.2v5.7h4.1l0.2-1.3l0.8-0.1v3.9h-1v-1.6h-3.8l-0.2,0.2v4.7c0,0.7-0.1,1.2-0.1,1.2h3.5
		c1.9,0,2.2-0.4,3.3-2.7h0.7l-0.8,3.6H54c-1.1,0-3.2,0.1-3.2,0.1V218.9z"/>
	<path class="st0" d="M63.7,218.9c1-0.1,1.6-0.6,1.6-1.4v-9.9c0-1.5-0.4-2-1.8-2.2v-0.5h0.7c1.1,0,2.2-0.1,2.2-0.1s0.3,0.5,0.8,1.1
		l8,9.2c0.3,0.4,0.6,0.8,0.9,1.2v-9.2c0-1,0-1.5-1.8-1.6v-0.6h4.2l0.1,0.3c0,0-1.5,0.4-1.5,2.2v12.2h-0.6l-9.4-11
		c-0.3-0.3-0.6-0.7-0.8-1.1v10c0,0.7-0.1,1.2-0.1,1.2l2,0.1l-0.1,0.6l-4.3,0.1V218.9z"/>
	<path class="st0" d="M84,218.9c0.9-0.1,1.3-0.6,1.5-1l5.2-13l0.9-0.2l4.9,12.5c0.6,1.5,1,1.6,1.7,1.7l-0.1,0.6h-0.9
		c-0.8,0-3.3,0.1-3.3,0.1v-0.7c0.6,0,1.2-0.2,0.9-0.9l-1.3-3.5h-5.3l-0.3,0.2l-1.5,4l1.9,0.3l-0.1,0.6H84V218.9z M90.7,207.2
		l-2.4,6.4H93l-1.9-5C90.9,208.1,90.7,207.5,90.7,207.2z"/>
	<path class="st0" d="M99.8,207c0-1.1,0-1.3-1.6-1.6v-0.5h1.7c2,0,2.5-0.1,2.5-0.1l0.1,0.1c0,0-0.7,0.8-0.7,2.7v6.7
		c0,3.2,2.2,4.6,4.4,4.6s4.5-1.5,4.5-4.5v-7.2c0-1,0-1.5-1.8-1.6v-0.6h4.3l0.1,0.3c0,0-1.5,0.4-1.5,2.2v6.9c0,3.6-2.8,5.5-6.1,5.5
		c-2.9,0-5.8-1.4-5.8-5.4V207z"/>
	<path class="st0" d="M115.3,215.6h0.7c0,2.7,1.7,3.4,3.2,3.4c1.4,0,2.8-0.6,2.8-2.3c0-3.8-6.9-3.8-6.9-8.2c0-2.2,1.6-3.8,4.9-3.8
		c1.6,0,3.1,0.4,3.6,0.4l-0.7,3.4h-0.7c0.2-1.7-0.6-3-2.5-3c-1.5,0-2.7,0.7-2.7,2.3c0,3.9,6.9,3.5,6.9,8.2c0,2.6-2.3,3.9-4.9,3.9
		c-1.9,0-4.2-0.7-4.2-2.3C114.8,217.2,114.9,216.9,115.3,215.6z"/>
	<path class="st0" d="M132.1,207c0-1.1,0-1.3-1.6-1.6v-0.5h1.7c2,0,2.5-0.1,2.5-0.1l0.1,0.1c0,0-0.7,0.8-0.7,2.7v6.7
		c0,3.2,2.2,4.6,4.4,4.6s4.5-1.5,4.5-4.5v-7.2c0-1,0-1.5-1.8-1.6v-0.6h4.3l0.1,0.3c0,0-1.5,0.4-1.5,2.2v6.9c0,3.6-2.8,5.5-6.1,5.5
		c-2.9,0-5.8-1.4-5.8-5.4V207z M135.7,200.9c0.6,0,1.2,0.5,1.2,1.2c0,0.6-0.6,1.2-1.2,1.2c-0.6,0-1.2-0.5-1.2-1.2
		C134.5,201.5,135.1,200.9,135.7,200.9z M140.8,200.9c0.6,0,1.2,0.5,1.2,1.2c0,0.6-0.5,1.2-1.2,1.2s-1.2-0.5-1.2-1.2
		C139.6,201.5,140.1,200.9,140.8,200.9z"/>
	<path class="st0" d="M147.3,218.9c1-0.1,1.6-0.6,1.6-1.4V207c0-1.1-0.1-1.3-1.8-1.6v-0.5h5.1c3.7,0,5.1,1.5,5.1,3.2
		c0,1.7-1.3,2.9-2.6,3.6c1,0.2,3.7,1,3.7,3.7c0,2.3-2,4.2-6,4.2h-2c-1.1,0-3.2,0.1-3.2,0.1V218.9z M152.1,218.7c3.4,0,4.1-1.5,4.1-3
		c0-3.4-3.7-3.3-4.6-3.3H151l-0.2,0.2v4.8c0,0.7-0.1,1.2-0.1,1.2H152.1z M153.1,211.6c1.1-0.1,2.1-1.7,2.1-3.1
		c0-1.3-0.9-2.8-3.1-2.8h-1l-0.2,0.2v5.6H153.1z"/>
	<path class="st0" d="M160.4,218.9c1-0.1,1.6-0.6,1.6-1.4V207c0-1.1-0.1-1.3-1.8-1.6v-0.5h9.1c0.9,0,1.6-0.1,1.6-0.1l-0.7,3.7h-0.7
		c0.1-2.3-0.6-2.7-2.4-2.7h-2.9L164,206v5.7h4.1l0.2-1.3l0.8-0.1v3.9h-1v-1.6h-3.8l-0.2,0.2v4.7c0,0.7-0.1,1.2-0.1,1.2h3.5
		c1.9,0,2.2-0.4,3.3-2.7h0.7l-0.8,3.6h-6.9c-1.1,0-3.2,0.1-3.2,0.1V218.9z"/>
	<path class="st0" d="M173.3,218.9c1-0.1,1.6-0.6,1.6-1.4V207c0-1.1-0.1-1.3-1.8-1.6v-0.5h5.1c4,0,5.5,1.6,5.5,3.5
		c0,2.1-1.8,3.5-2.9,4v0.3l3.2,4.6c0.9,1.4,1.4,1.4,2,1.5l0.2,0l-0.1,0.7h-3.2l-0.1-0.1c0,0-0.5-1.1-1.4-2.4l-2.7-4h-1.6l-0.2,0.2
		v4.3c0,0.6-0.1,1.1-0.1,1.1l2,0.2l-0.1,0.6l-5.3,0.1V218.9z M178.7,212.2c1.3,0,2.8-1.1,2.8-3.2c0-1.7-0.9-3.3-3.7-3.3h-0.8
		l-0.2,0.2v6.2H178.7z"/>
	<path class="st0" d="M186.6,218.9c0,0,0.5-0.5,1.2-1.6l7.3-10.5c0.2-0.3,0.6-0.7,0.9-1.1h-4.8c-1.8,0-2.4,0.5-3.2,2.7h-0.7l0.6-3.6
		h9c0.9,0,1.4-0.1,1.4-0.1l0.1,0.8c0,0-0.3,0.4-1.1,1.6l-7.3,10.5c-0.2,0.4-0.6,0.8-0.9,1.1h5.5c1.9,0,2.2-0.7,3.3-3.2h0.7l-0.9,4
		h-9.6c-0.9,0-1.4,0.1-1.4,0.1L186.6,218.9z"/>
	<path class="st0" d="M200.5,218.9c1-0.1,1.6-0.6,1.6-1.4V207c0-1.1-0.1-1.3-1.8-1.6v-0.5h9.1c0.9,0,1.6-0.1,1.6-0.1l-0.7,3.7h-0.7
		c0.1-2.3-0.6-2.7-2.4-2.7h-2.9l-0.2,0.2v5.7h4.1l0.2-1.3l0.8-0.1v3.9h-1v-1.6h-3.8l-0.2,0.2v4.7c0,0.7-0.1,1.2-0.1,1.2h3.5
		c1.9,0,2.2-0.4,3.3-2.7h0.7l-0.8,3.6h-6.9c-1.1,0-3.2,0.1-3.2,0.1V218.9z"/>
	<path class="st0" d="M214.4,207c0-1.1,0-1.3-1.6-1.6v-0.5h1.7c2,0,2.5-0.1,2.5-0.1l0.1,0.1c0,0-0.7,0.8-0.7,2.7v6.7
		c0,3.2,2.2,4.6,4.4,4.6s4.5-1.5,4.5-4.5v-7.2c0-1,0-1.5-1.8-1.6v-0.6h4.3l0.1,0.3c0,0-1.5,0.4-1.5,2.2v6.9c0,3.6-2.8,5.5-6.1,5.5
		c-2.9,0-5.8-1.4-5.8-5.4V207z"/>
	<path class="st0" d="M237.6,204.6c1.9,0,4.2,0.4,4.9,0.5l-0.7,3.4h-0.7c0-2.4-1.9-3-3.7-3c-3.9,0-5.9,3.1-5.9,6.6
		c0,4,2.7,6.9,6.8,6.9c0.7,0,1.4-0.1,2.2-0.3v-3.2c0-1.1-0.1-1.3-2-1.6v-0.5h4.7l0.1,0.3c0,0-0.9,0.4-0.9,2.1v3.6
		c-1.4,0.2-3.4,0.6-5,0.6c-4.4,0-8-2.6-8-7.3C229.4,208.6,231.9,204.6,237.6,204.6z"/>
	<path class="st0" d="M246.2,207c0-1.1,0-1.3-1.6-1.6v-0.5h1.7c2,0,2.5-0.1,2.5-0.1l0.1,0.1c0,0-0.7,0.8-0.7,2.7v6.7
		c0,3.2,2.2,4.6,4.4,4.6s4.5-1.5,4.5-4.5v-7.2c0-1,0-1.5-1.8-1.6v-0.6h4.3l0.1,0.3c0,0-1.5,0.4-1.5,2.2v6.9c0,3.6-2.8,5.5-6.1,5.5
		c-2.9,0-5.8-1.4-5.8-5.4V207z"/>
	<path class="st0" d="M261.4,218.9c1-0.1,1.6-0.6,1.6-1.4v-9.9c0-1.5-0.4-2-1.8-2.2v-0.5h0.7c1.1,0,2.2-0.1,2.2-0.1s0.3,0.5,0.8,1.1
		l8,9.2c0.3,0.4,0.6,0.8,0.9,1.2v-9.2c0-1,0-1.5-1.8-1.6v-0.6h4.2l0.1,0.3c0,0-1.5,0.4-1.5,2.2v12.2h-0.6l-9.4-11
		c-0.3-0.3-0.6-0.7-0.8-1.1v10c0,0.7-0.1,1.2-0.1,1.2l2,0.1l-0.1,0.6l-4.3,0.1V218.9z"/>
	<path class="st0" d="M286.2,204.6c1.9,0,4.2,0.4,4.9,0.5l-0.7,3.4h-0.7c0-2.4-1.9-3-3.7-3c-3.9,0-5.9,3.1-5.9,6.6
		c0,4,2.7,6.9,6.8,6.9c0.7,0,1.4-0.1,2.2-0.3v-3.2c0-1.1-0.1-1.3-2-1.6v-0.5h4.7l0.1,0.3c0,0-0.9,0.4-0.9,2.1v3.6
		c-1.4,0.2-3.4,0.6-5,0.6c-4.4,0-8-2.6-8-7.3C278,208.6,280.5,204.6,286.2,204.6z"/>
</g>
</svg>
