<?xml version="1.0" encoding="utf-8"?>
<!-- Generator: Adobe Illustrator 23.1.0, SVG Export Plug-In . SVG Version: 6.00 Build 0)  -->
<svg version="1.1" xmlns="http://www.w3.org/2000/svg" xmlns:xlink="http://www.w3.org/1999/xlink" x="0px" y="0px"
	 viewBox="0 0 1917 293" style="enable-background:new 0 0 1917 293;" xml:space="preserve">
<style type="text/css">
	.st0{clip-path:url(#SVGID_2_);fill:#FFFFFF;}
	.st1{clip-path:url(#SVGID_2_);fill:none;stroke:#FFFFFF;stroke-width:0.378;}
</style>
<g id="Layer_2">
</g>
<g id="Layer_1">
	<g>
		<defs>
			<rect id="SVGID_1_" x="-4" y="0.9" width="1920" height="292.1"/>
		</defs>
		<clipPath id="SVGID_2_">
			<use xlink:href="#SVGID_1_"  style="overflow:visible;"/>
		</clipPath>
		<path class="st0" d="M1866.5,270.5h15.5v-71.9h24.4v-13h-64.1v13h24.2V270.5z M1775,270.5v-30.3c0-14-0.3-25.2-0.9-36.2l0.5-0.1
			c4.2,9.6,9.7,19.9,15.1,29.2l22.2,37.4h16.1v-84.9h-14.4v29.6c0,13,0.3,23.9,1.4,35.3h-0.2c-3.9-9.2-9-19-14.5-28.5l-21.9-36.4
			h-17.8v84.9H1775z M1738.9,220.3h-32v-21.9h33.9v-12.7h-49.4v84.9h51.3v-12.7h-35.8v-24.9h32V220.3z M1656.2,270.5h15.1l-4.9-84.9
			h-20.2l-11.7,34c-3.3,9.9-6.2,20.4-8.4,29.6h-0.4c-2.1-9.4-4.8-19.5-7.8-29.5l-11.1-34.1h-20.4l-5.7,84.9h14.5l1.9-34.1
			c0.6-11.6,1.1-25.1,1.5-36.2h0.2c2.3,10.6,5.3,22.2,8.6,33l11.3,36.3h11.8l12.5-36.8c3.8-10.7,7.3-22.2,10.1-32.5h0.4
			c-0.1,11.5,0.5,24.7,1,35.7L1656.2,270.5z M1561.1,220.3h-32v-21.9h33.9v-12.7h-49.4v84.9h51.3v-12.7h-35.8v-24.9h32V220.3z
			 M1493.3,223.7h-30v12.2h15v21.3c-2,0.9-6.1,1.6-11.7,1.6c-17.6,0-29.5-11.5-29.5-30.7c0-19.8,12.7-30.5,30.8-30.5
			c9,0,14.6,1.5,19.3,3.7l3.4-12.5c-3.9-1.9-12.1-4-22.5-4c-28.1,0-47.1,17.1-47.2,44.1c0,12.8,4.3,24.1,11.8,31.2
			c8.1,7.7,19,11.3,33.4,11.3c11.2,0,21.8-2.8,27.2-4.8V223.7z M1362.9,234.7l6.6-20.9c1.4-5,2.8-11,4-15.9h0.3
			c1.3,4.9,2.6,10.7,4.3,15.9l6.7,20.9H1362.9z M1387.2,246.5l7.7,24.1h16.8l-27.6-84.9h-19.8l-27.2,84.9h16l7.3-24.1H1387.2z
			 M1268.1,270.5v-30.3c0-14-0.3-25.2-0.9-36.2l0.5-0.1c4.1,9.6,9.7,19.9,15.1,29.2l22.2,37.4h16.1v-84.9h-14.4v29.6
			c0,13,0.3,23.9,1.4,35.3h-0.2c-3.9-9.2-9-19-14.5-28.5l-21.9-36.4h-17.7v84.9H1268.1z M1188.9,234.7l6.5-20.9c1.4-5,2.8-11,4-15.9
			h0.2c1.3,4.9,2.6,10.7,4.3,15.9l6.7,20.9H1188.9z M1213.1,246.5l7.7,24.1h16.7l-27.6-84.9h-19.8l-27.2,84.9h16l7.3-24.1H1213.1z
			 M1134.8,270.5h15.1l-4.9-84.9h-20.2l-11.7,34c-3.3,9.9-6.2,20.4-8.4,29.6h-0.4c-2.1-9.4-4.8-19.5-7.8-29.5l-11.1-34.1H1065
			l-5.7,84.9h14.5l1.9-34.1c0.6-11.6,1.1-25.1,1.5-36.2h0.3c2.3,10.6,5.3,22.2,8.6,33l11.3,36.3h11.8l12.5-36.8
			c3.8-10.7,7.3-22.2,10.1-32.5h0.4c-0.1,11.5,0.5,24.7,1,35.7L1134.8,270.5z"/>
		<path class="st0" d="M1876.1,130.4h15.5V58.5h24.4v-13h-64.1v13h24.2V130.4z M1836.8,80.1h-32V58.2h33.9V45.5h-49.4v84.9h51.3
			v-12.7h-35.8V92.7h32V80.1z M1715.7,126.4c4.7,2.9,14,5.4,23.1,5.4c21.8,0,32.1-11.8,32.1-25.6c0-12.2-7.1-19.7-21.8-25.2
			c-11.3-4.4-16.2-7.4-16.2-14c0-5,4.2-10.2,14-10.2c7.9,0,13.9,2.4,17,4l3.6-12.5c-4.4-2.3-11.1-4.3-20.3-4.3
			c-18.5,0-30.1,10.5-30.1,24.4c0,12.2,9,19.7,23.1,24.7c10.7,3.9,15,7.7,15,14.1c0,6.9-5.6,11.6-15.4,11.6
			c-7.9,0-15.6-2.5-20.5-5.4L1715.7,126.4z M1645.9,126.4c4.6,2.9,14,5.4,23,5.4c21.8,0,32.1-11.8,32.1-25.6
			c0-12.2-7.1-19.7-21.8-25.2c-11.3-4.4-16.2-7.4-16.2-14c0-5,4.1-10.2,14-10.2c7.9,0,13.8,2.4,17,4l3.6-12.5
			c-4.4-2.3-11.1-4.3-20.3-4.3c-18.5,0-30.1,10.5-30.1,24.4c0,12.2,8.9,19.7,23,24.7c10.7,3.9,15,7.7,15,14.1
			c0,6.9-5.6,11.6-15.4,11.6c-8,0-15.6-2.5-20.5-5.4L1645.9,126.4z M1584.7,94.6l6.6-20.9c1.4-5.1,2.8-11,4-15.9h0.2
			c1.3,4.9,2.6,10.7,4.3,15.9l6.7,20.9H1584.7z M1609,106.3l7.7,24.1h16.7l-27.6-84.9h-19.8l-27.2,84.9h16l7.3-24.1H1609z
			 M1465.6,130.4h50.4v-13h-34.9V45.5h-15.5V130.4z M1400.6,94.6l6.5-20.9c1.4-5.1,2.8-11,4-15.9h0.2c1.3,4.9,2.6,10.7,4.3,15.9
			l6.7,20.9H1400.6z M1424.9,106.3l7.7,24.1h16.7l-27.6-84.9H1402l-27.2,84.9h16l7.3-24.1H1424.9z M1319.8,91.5h7.7
			c10.7,0,19.4,4,19.4,14c0,10.5-9,14.1-18.9,14.1c-3.5,0-6.2,0-8.2-0.4V91.5z M1319.8,56.9c1.6-0.4,4.3-0.6,8.8-0.6
			c9.8,0,15.9,3.6,15.9,11.7c0,7.2-5.9,12.2-16.7,12.2h-7.9V56.9z M1304.5,130.1c4,0.5,10.5,1.1,19,1.1c15.6,0,25.6-2.6,31.6-7.8
			c4.8-4.1,8.1-10.1,8.1-17.6c0-11.6-8.2-18.7-17.1-20.9v-0.4c9.2-3.4,14.1-10.5,14.1-18.2c0-7.3-3.5-12.9-8.8-16
			c-5.7-3.9-12.8-5.4-24.2-5.4c-8.8,0-17.8,0.9-22.7,1.9V130.1z M1246.9,56.4c15.5,0,23.4,15.1,23.4,31.1c0,17.8-8.4,31.8-23.4,31.8
			c-14.9,0-23.6-13.7-23.6-31.1C1223.3,70.7,1231.5,56.4,1246.9,56.4 M1247.4,44c-23.9,0-40.4,18.4-40.4,44.6
			c0,24.8,15.1,43.2,39.2,43.2c23.3,0,40.5-16.2,40.5-44.7C1286.7,62.8,1272.1,44,1247.4,44 M1149.8,130.4h50.4v-13h-34.9V45.5
			h-15.5V130.4z M1129.5,83.5h-30v12.2h15V117c-2,0.9-6.1,1.6-11.7,1.6c-17.6,0-29.5-11.5-29.5-30.7c0-19.8,12.7-30.5,30.8-30.5
			c9,0,14.6,1.5,19.3,3.7l3.4-12.5c-3.9-1.9-12.1-4-22.6-4c-28.1,0-47.1,17.1-47.2,44.1c0,12.8,4.3,24.1,11.9,31.2
			c8.1,7.7,19,11.3,33.4,11.3c11.2,0,21.8-2.8,27.2-4.8V83.5z"/>
		<path class="st0" d="M134.5,154.5V16C58,16-4,78-4,154.5S58,293,134.5,293S273,231,273,154.5H134.5z"/>
		<path class="st0" d="M390.4,231.2c0,12.4-0.6,20.8-2.9,24.4c-2,3.2-5.9,4.5-13.7,4.9l-15.6,1v9.8c16.9-0.7,32.2-1,48.2-1
			c15,0,30.3,0.3,47.2,1v-9.8l-15.6-1c-7.8-0.3-11.7-1.6-13.7-4.9c-2.3-3.6-2.9-12.1-2.9-24.4V93.5c0-12.4,0.3-22.8,1.3-32.6h50.5
			c9.8,0,12.4,2.9,13,10.7l1.3,25.7h10.1c0-17.6,0.6-35.5,2.3-52.4c-23.4,0-46.9,1-70.3,1h-47.2c-23.4,0-46.9-1-70.3-1
			c1.6,16.9,2.3,34.8,2.3,52.4h10.1l1.3-25.7c0.6-7.8,3.2-10.7,13-10.7h50.5c1,9.8,1.3,20.2,1.3,32.6V231.2z"/>
		<path class="st0" d="M657.5,96.4c0,32.2-25.1,44-53.4,44c-9.8,0-17.2-0.3-23.1-0.6V60.6c9.1-2.3,18.6-2.6,27.3-2.6
			C635.7,58,657.5,65.2,657.5,96.4 M581,152.4c5.9-0.3,12.7-0.7,21.8-0.7c41.7,0,64.4,14.3,64.4,50.1c0,34.8-22.8,55.6-58.9,55.6
			c-8.8,0-18.2-0.3-27.3-2.6V152.4z M689.7,89.9c0-34.5-28-45.6-58.3-44.9c-25.7,0.3-44,1-62.8,1c-10.4,0-29-0.6-46.9-1v9.8l11.7,1
			c7.8,0.7,11.7,1.6,13.7,4.9c2.3,3.6,2.9,12.1,2.9,24.4v154.3c0,8.8-1.3,18.9-7.2,21.2l-8.5,3.3v7.5c11.7-0.3,23.4-1,35.5-1
			c11.7,0,23.4,0.6,35.5,1c71.3,2,95.4-43,95.4-74.9c0-38.1-32.2-51.7-65.4-52.7V143C662.1,138.8,689.7,119.5,689.7,89.9"/>
		<path class="st0" d="M790.2,163.8c10.1-1,22.1-1,37.8-1c19.9,0,30.9,1.3,34.5,3.9c1.6,1,2.3,3.9,2.6,8.1l1.6,19.2h9.8
			c-0.3-11.7-1-24.1-1-36.1c0-12.1,0.6-24.4,1-37.8h-9.8l-1.6,16.9c-0.3,4.2-1,7.1-2.6,8.5c-3.6,2.3-14.7,3.6-34.5,3.6
			c-15.6,0-27.3-0.3-37.8-1V61.3c9.1-2.3,18.6-2.6,27.3-2.6c14.3,0,40,0.3,57.3,6.8c2.6,1,2.9,4.6,2.9,8.8v21.2h11.4
			c0-16.6,1.6-35.1,5.2-49.5c-12.7-0.6-27.3-1-42-1c-18.6,0-48.5,1-70.3,1c-18.5,0-37.1-0.6-55-1v9.8l15.6,1
			c7.8,0.3,11.7,1.6,13.7,4.9c2.3,3.6,2.9,12.1,2.9,24.4v146.2c0,12.4-0.6,20.8-2.9,24.4c-2,3.3-5.9,4.6-13.7,4.9l-15.6,1v9.8
			c16.9-0.6,32.2-1,48.2-1c15,0,30.3,0.3,47.2,1v-9.8l-15.6-1c-7.8-0.3-11.7-1.6-13.7-4.9c-2.3-3.6-2.9-12-2.9-24.4V163.8z"/>
		<path class="st0" d="M150.8,139.4h138.5c0-76.5-62-138.5-138.5-138.5V139.4z"/>
		<line class="st1" x1="975.7" y1="32.2" x2="975.7" y2="284.7"/>
	</g>
</g>
</svg>
