<?xml version="1.0" encoding="utf-8"?>
<!-- Generator: Adobe Illustrator 23.1.0, SVG Export Plug-In . SVG Version: 6.00 Build 0)  -->
<svg version="1.1" id="Layer_1" xmlns="http://www.w3.org/2000/svg" xmlns:xlink="http://www.w3.org/1999/xlink" x="0px" y="0px"
	 viewBox="0 0 20 20" style="enable-background:new 0 0 20 20;" xml:space="preserve">
<style type="text/css">
	.st0{fill:#007BFF;}
</style>
<path class="st0" d="M5.5,16C4.7,16,4,15.3,4,14.5S4.7,13,5.5,13S7,13.7,7,14.5S6.3,16,5.5,16z M5.5,14C5.2,14,5,14.2,5,14.5
	S5.2,15,5.5,15S6,14.8,6,14.5S5.8,14,5.5,14z"/>
<path class="st0" d="M5.5,12C4.7,12,4,11.3,4,10.5S4.7,9,5.5,9S7,9.7,7,10.5S6.3,12,5.5,12z M5.5,10C5.2,10,5,10.2,5,10.5
	S5.2,11,5.5,11S6,10.8,6,10.5S5.8,10,5.5,10z"/>
<path class="st0" d="M5.5,8C4.7,8,4,7.3,4,6.5S4.7,5,5.5,5S7,5.7,7,6.5S6.3,8,5.5,8z M5.5,6C5.2,6,5,6.2,5,6.5S5.2,7,5.5,7
	S6,6.8,6,6.5S5.8,6,5.5,6z"/>
<path class="st0" d="M13.5,8C12.7,8,12,7.3,12,6.5S12.7,5,13.5,5S15,5.7,15,6.5S14.3,8,13.5,8z M13.5,6C13.2,6,13,6.2,13,6.5
	S13.2,7,13.5,7S14,6.8,14,6.5S13.8,6,13.5,6z"/>
<path class="st0" d="M13.5,12c-0.8,0-1.5-0.7-1.5-1.5S12.7,9,13.5,9S15,9.7,15,10.5S14.3,12,13.5,12z M13.5,10
	c-0.3,0-0.5,0.2-0.5,0.5s0.2,0.5,0.5,0.5s0.5-0.2,0.5-0.5S13.8,10,13.5,10z"/>
<path class="st0" d="M13.5,16c-0.8,0-1.5-0.7-1.5-1.5s0.7-1.5,1.5-1.5s1.5,0.7,1.5,1.5S14.3,16,13.5,16z M13.5,14
	c-0.3,0-0.5,0.2-0.5,0.5s0.2,0.5,0.5,0.5s0.5-0.2,0.5-0.5S13.8,14,13.5,14z"/>
<path class="st0" d="M15.5,19h-12C2.1,19,1,17.9,1,16.5v-12C1,3.1,2.1,2,3.5,2h12C16.9,2,18,3.1,18,4.5v12C18,17.9,16.9,19,15.5,19z
	 M3.5,3C2.7,3,2,3.7,2,4.5v12C2,17.3,2.7,18,3.5,18h12c0.8,0,1.5-0.7,1.5-1.5v-12C17,3.7,16.3,3,15.5,3H3.5z"/>
</svg>
