<?xml version="1.0" encoding="utf-8"?>
<!-- Generator: Adobe Illustrator 23.1.0, SVG Export Plug-In . SVG Version: 6.00 Build 0)  -->
<svg version="1.1" id="Layer_1" xmlns="http://www.w3.org/2000/svg" xmlns:xlink="http://www.w3.org/1999/xlink" x="0px" y="0px"
	 viewBox="0 0 20 20" style="enable-background:new 0 0 20 20;" xml:space="preserve">
<style type="text/css">
	.st0{fill:#007BFF;}
</style>
<path class="st0" d="M17.5,2h-9C7.7,2,7,2.7,7,3.5v3C7,6.8,7.2,7,7.5,7S8,6.8,8,6.5v-3C8,3.2,8.2,3,8.5,3h7.6l-3.8,1.6
	C11.5,4.9,11,5.8,11,6.5V16H8.5C8.2,16,8,15.8,8,15.5v-3C8,12.2,7.8,12,7.5,12S7,12.2,7,12.5v3C7,16.3,7.7,17,8.5,17H11v1.5
	c0,0.4,0.2,0.8,0.5,1c0.2,0.1,0.4,0.2,0.6,0.2c0.2,0,0.4,0,0.5-0.1l5.2-2.2c0.7-0.3,1.2-1.1,1.2-1.9v-12C19,2.7,18.3,2,17.5,2z
	 M18,15.5c0,0.4-0.3,0.8-0.6,0.9l-5.2,2.2c-0.1,0-0.2,0-0.2,0s0-0.1,0-0.2v-12c0-0.4,0.3-0.8,0.6-0.9l5.3-2.3C18,3.3,18,3.4,18,3.5
	C18,3.5,18,15.5,18,15.5z"/>
<path class="st0" d="M8.4,9.1l-3-3C5.2,6,4.8,6,4.6,6.1s-0.2,0.5,0,0.7L6.8,9H0.5C0.2,9,0,9.2,0,9.5S0.2,10,0.5,10h6.3l-2.1,2.1
	c-0.2,0.2-0.2,0.5,0,0.7C4.7,12.9,4.9,13,5,13s0.3,0,0.4-0.1l3-3C8.6,9.7,8.6,9.3,8.4,9.1L8.4,9.1z"/>
</svg>
