<?xml version="1.0" encoding="utf-8"?>
<!-- Generator: Adobe Illustrator 23.1.0, SVG Export Plug-In . SVG Version: 6.00 Build 0)  -->
<svg version="1.1" id="Layer_1" xmlns="http://www.w3.org/2000/svg" xmlns:xlink="http://www.w3.org/1999/xlink" x="0px" y="0px"
	 viewBox="0 0 20 20" style="enable-background:new 0 0 20 20;" xml:space="preserve">
<style type="text/css">
	.st0{fill:#007BFF;}
</style>
<path class="st0" d="M18.7,7l-9-3C9.6,4,9.4,4,9.3,4l-9,3C0.1,7.1,0,7.3,0,7.5S0.1,7.9,0.3,8L3,8.9v2.6c0,0.1,0.1,0.3,0.1,0.4
	C3.2,11.9,5.3,14,9.5,14c1.5,0,2.9-0.3,4.2-0.8c0.3-0.1,0.4-0.4,0.3-0.7s-0.4-0.4-0.7-0.3c-1.1,0.5-2.4,0.7-3.8,0.7
	c-1.9,0-3.4-0.5-4.2-0.9c-0.6-0.3-1.1-0.6-1.3-0.8V9.2L9.3,11c0.1,0,0.1,0,0.2,0s0.1,0,0.2,0L15,9.2v0.9c-0.6,0.2-1,0.8-1,1.4
	c0,0.6,0.4,1.1,0.9,1.4L14,16.4c0,0.1,0,0.3,0.1,0.4s0.2,0.2,0.4,0.2h2c0.2,0,0.3-0.1,0.4-0.2s0.1-0.3,0.1-0.4l-0.9-3.5
	c0.5-0.2,0.9-0.8,0.9-1.4c0-0.7-0.4-1.2-1-1.4V8.9L18.7,8C18.9,7.9,19,7.7,19,7.5S18.9,7.1,18.7,7L18.7,7z M15.5,11
	c0.3,0,0.5,0.2,0.5,0.5S15.8,12,15.5,12S15,11.8,15,11.5S15.2,11,15.5,11z M15.1,16l0.4-1.4l0.4,1.4H15.1L15.1,16z M15.5,8L9.6,7
	C9.3,7,9.1,7.1,9,7.4S9.1,7.9,9.4,8l4,0.7L9.5,10L2.1,7.5L9.5,5l7.4,2.5L15.5,8L15.5,8z"/>
</svg>
