<?xml version="1.0" encoding="utf-8"?>
<!-- Generator: Adobe Illustrator 23.1.0, SVG Export Plug-In . SVG Version: 6.00 Build 0)  -->
<svg version="1.1" id="Layer_1" xmlns="http://www.w3.org/2000/svg" xmlns:xlink="http://www.w3.org/1999/xlink" x="0px" y="0px"
	 viewBox="0 0 20 20" style="enable-background:new 0 0 20 20;" xml:space="preserve">
<style type="text/css">
	.st0{fill:#FFFFFF;}
</style>
<path class="st0" d="M19.9,12.2L11,2.4c-0.3-0.3-0.6-0.5-1-0.5l0,0c-0.4,0-0.8,0.2-1,0.5l-8.8,9.8c-0.2,0.2-0.2,0.5,0,0.7
	C0.3,13,0.4,13,0.5,13c0.1,0,0.3-0.1,0.4-0.2L3,10.5v8C3,19.3,3.7,20,4.5,20h11c0.8,0,1.5-0.7,1.5-1.5v-8l2.1,2.4
	c0.2,0.2,0.5,0.2,0.7,0S20.1,12.4,19.9,12.2L19.9,12.2z M12,19H8v-4.5C8,14.2,8.2,14,8.5,14h3c0.3,0,0.5,0.2,0.5,0.5V19z M16,18.5
	c0,0.3-0.2,0.5-0.5,0.5H13v-4.5c0-0.8-0.7-1.5-1.5-1.5h-3C7.7,13,7,13.7,7,14.5V19H4.5C4.2,19,4,18.8,4,18.5V9.4l5.7-6.3
	C9.8,3,9.9,2.9,10,2.9s0.2,0,0.3,0.1L16,9.4V18.5z"/>
</svg>
