<?xml version="1.0" encoding="utf-8"?>
<!-- Generator: Adobe Illustrator 23.1.0, SVG Export Plug-In . SVG Version: 6.00 Build 0)  -->
<svg version="1.1" id="Layer_1" xmlns="http://www.w3.org/2000/svg" xmlns:xlink="http://www.w3.org/1999/xlink" x="0px" y="0px"
	 viewBox="0 0 20 20" style="enable-background:new 0 0 20 20;" xml:space="preserve">
<style type="text/css">
	.st0{fill:#007BFF;}
</style>
<path class="st0" d="M10,12c-0.1,0-0.1,0-0.2,0L0.3,8C0.1,7.9,0,7.7,0,7.5S0.1,7.1,0.3,7l9.5-4C9.9,3,10.1,3,10.2,3l9.5,4
	C19.9,7.1,20,7.3,20,7.5S19.9,7.9,19.7,8l-9.5,4C10.1,12,10.1,12,10,12z M1.8,7.5L10,11l8.2-3.5L10,4C10,4,1.8,7.5,1.8,7.5z"/>
<path class="st0" d="M10,15c-0.1,0-0.1,0-0.2,0l-9.5-4c-0.3-0.1-0.4-0.4-0.3-0.7S0.4,9.9,0.7,10L10,14l9.3-3.9
	c0.3-0.1,0.5,0,0.7,0.3s0,0.5-0.3,0.7l-9.5,4C10.1,15,10.1,15,10,15z"/>
<path class="st0" d="M10,18c-0.1,0-0.1,0-0.2,0l-9.5-4c-0.3-0.1-0.4-0.4-0.3-0.7s0.4-0.4,0.7-0.3L10,17l9.3-3.9
	c0.3-0.1,0.5,0,0.7,0.3s0,0.5-0.3,0.7l-9.5,4C10.1,18,10.1,18,10,18z"/>
</svg>
