<?xml version="1.0" encoding="utf-8"?>
<!-- Generator: Adobe Illustrator 23.1.0, SVG Export Plug-In . SVG Version: 6.00 Build 0)  -->
<svg version="1.1" id="Layer_1" xmlns="http://www.w3.org/2000/svg" xmlns:xlink="http://www.w3.org/1999/xlink" x="0px" y="0px"
	 viewBox="0 0 20 20" style="enable-background:new 0 0 20 20;" xml:space="preserve">
<style type="text/css">
	.st0{fill:#007BFF;}
</style>
<path class="st0" d="M18.8,1.1c-0.1-0.1-0.3-0.1-0.5,0l-5.8,2.9L6.7,1.1C6.6,1,6.4,1,6.3,1.1l-6,3C0.1,4.1,0,4.3,0,4.5v15
	c0,0.2,0.1,0.3,0.2,0.4C0.3,20,0.4,20,0.5,20c0.1,0,0.2,0,0.2-0.1l5.8-2.9l5.8,2.9c0.1,0.1,0.3,0.1,0.4,0l6-3
	c0.2-0.1,0.3-0.3,0.3-0.4v-15C19,1.3,18.9,1.2,18.8,1.1L18.8,1.1z M6,16.2l-5,2.5V4.8l5-2.5V16.2z M7,2.3l5,2.5v13.9l-5-2.5V2.3z
	 M18,16.2l-5,2.5V4.8l5-2.5V16.2z"/>
</svg>
