<?xml version="1.0" encoding="utf-8"?>
<!-- Generator: Adobe Illustrator 23.1.0, SVG Export Plug-In . SVG Version: 6.00 Build 0)  -->
<svg version="1.1" id="Layer_1" xmlns="http://www.w3.org/2000/svg" xmlns:xlink="http://www.w3.org/1999/xlink" x="0px" y="0px"
	 viewBox="0 0 20 20" style="enable-background:new 0 0 20 20;" xml:space="preserve">
<style type="text/css">
	.st0{fill:#007BFF;}
</style>
<path class="st0" d="M9.5,14C7.6,14,6,12.4,6,10.5v-6C6,2.6,7.6,1,9.5,1S13,2.6,13,4.5v6C13,12.4,11.4,14,9.5,14z M9.5,2
	C8.1,2,7,3.1,7,4.5v6C7,11.9,8.1,13,9.5,13s2.5-1.1,2.5-2.5v-6C12,3.1,10.9,2,9.5,2z"/>
<path class="st0" d="M16,10.5c0-0.3-0.2-0.5-0.5-0.5S15,10.2,15,10.5c0,3-2.5,5.5-5.5,5.5S4,13.5,4,10.5C4,10.2,3.8,10,3.5,10
	S3,10.2,3,10.5c0,3.4,2.6,6.2,6,6.5v2H7.5C7.2,19,7,19.2,7,19.5S7.2,20,7.5,20h4c0.3,0,0.5-0.2,0.5-0.5S11.8,19,11.5,19H10v-2
	C13.4,16.7,16,13.9,16,10.5z"/>
</svg>
